<?xml version="1.0" standalone="no"?>
<!DOCTYPE svg PUBLIC "-//W3C//DTD SVG 20010904//EN"
 "http://www.w3.org/TR/2001/REC-SVG-20010904/DTD/svg10.dtd">
<svg version="1.0" xmlns="http://www.w3.org/2000/svg"
 width="1082.000000pt" height="1082.000000pt" viewBox="0 0 1082.000000 1082.000000"
 preserveAspectRatio="xMidYMid meet">
<metadata>
Created by potrace 1.11, written by Peter Selinger 2001-2013
</metadata>
<g transform="translate(0.000000,1082.000000) scale(0.100000,-0.100000)"
fill="#000000" stroke="none">
<path d="M5505 9550 c-137 -3 -255 -8 -261 -12 -6 -4 -44 -8 -85 -9 -41 -1
-92 -9 -114 -16 -22 -8 -67 -21 -100 -28 -33 -7 -85 -20 -115 -28 -30 -8 -104
-22 -165 -32 -60 -9 -137 -24 -170 -32 -33 -8 -76 -18 -95 -23 -19 -4 -48 -12
-65 -18 -16 -5 -50 -15 -75 -22 -25 -7 -54 -16 -65 -20 -11 -5 -47 -17 -80
-28 -150 -51 -431 -185 -522 -249 -17 -13 -34 -23 -38 -23 -3 0 -33 -18 -66
-41 -49 -33 -63 -38 -75 -29 -8 7 -14 16 -14 21 0 8 -30 57 -72 116 -35 49
-111 69 -153 40 -25 -17 -142 -57 -167 -57 -16 0 -55 -17 -68 -30 -3 -3 -21
-14 -40 -24 -19 -11 -37 -22 -40 -26 -3 -3 -30 -26 -60 -49 -107 -84 -292
-258 -390 -369 -104 -117 -124 -166 -99 -243 15 -43 96 -166 115 -173 21 -8
17 -38 -9 -66 -98 -110 -148 -171 -172 -210 -15 -25 -31 -47 -34 -50 -3 -3
-10 -12 -16 -21 -5 -9 -26 -41 -46 -70 -57 -86 -89 -138 -89 -144 0 -3 -8 -15
-18 -25 -17 -19 -155 -288 -220 -430 -16 -36 -44 -108 -62 -160 -18 -52 -37
-99 -42 -104 -4 -6 -8 -20 -8 -33 0 -28 9 -28 -177 -2 -83 12 -163 19 -177 15
-14 -3 -41 -20 -60 -37 -29 -25 -41 -48 -65 -127 -42 -135 -49 -168 -61 -252
-5 -41 -14 -104 -20 -140 -35 -221 -51 -633 -30 -769 11 -72 17 -87 46 -117
36 -35 77 -50 171 -62 l58 -7 3 -110 c5 -133 4 -235 -3 -465 -7 -208 22 -545
58 -679 16 -60 16 -61 -57 -111 -72 -49 -158 -119 -179 -147 -18 -23 -22 -40
-21 -98 1 -56 12 -100 53 -220 28 -82 64 -184 81 -225 32 -78 101 -221 110
-230 4 -3 19 -32 34 -65 63 -134 199 -322 259 -355 47 -27 114 -31 149 -8 13
8 50 25 83 38 33 13 77 32 98 44 l39 21 20 -25 c92 -115 364 -353 528 -462 23
-15 24 -18 11 -39 -8 -13 -25 -44 -38 -69 -13 -25 -35 -56 -47 -70 -46 -49
-61 -90 -61 -175 l0 -80 47 -60 c25 -33 61 -71 78 -85 18 -14 44 -34 59 -46
47 -38 137 -91 212 -127 133 -63 409 -124 509 -112 56 7 120 40 120 63 0 6 4
12 8 12 9 0 41 70 61 132 16 49 25 53 69 33 20 -9 46 -20 57 -25 47 -21 178
-60 203 -60 38 -1 116 -23 135 -38 20 -17 148 -49 257 -63 47 -7 89 -16 95
-20 5 -5 18 -9 30 -9 11 0 38 -7 60 -14 39 -14 154 -40 248 -57 66 -12 133
-25 197 -37 202 -39 748 -48 974 -17 230 32 302 45 466 87 63 17 131 33 150
38 54 11 306 98 365 126 30 13 56 24 59 24 3 0 39 16 80 35 41 19 82 35 91 35
8 0 15 4 15 9 0 5 8 11 18 15 18 6 43 20 130 74 29 17 54 32 56 32 2 0 32 16
66 35 34 19 66 35 72 35 16 0 63 -40 135 -112 41 -41 90 -78 127 -97 130 -64
163 -71 227 -49 38 13 201 118 239 154 14 13 36 33 49 44 130 109 298 304 344
401 38 79 35 106 -20 197 -43 72 -145 213 -185 256 -16 18 -16 21 15 64 18 24
39 54 46 66 8 11 34 44 58 73 24 28 43 56 43 62 0 6 3 11 8 11 4 0 25 30 47
66 22 37 49 78 60 93 11 14 31 46 44 71 13 25 29 52 36 60 6 8 16 28 23 43
l12 28 52 -31 c112 -65 180 -92 220 -87 42 6 93 43 117 87 9 15 28 51 43 78
15 28 32 53 37 57 11 6 129 246 151 305 7 19 17 39 22 45 4 5 8 16 8 24 0 7
11 37 24 65 13 28 27 62 30 76 8 42 33 140 56 225 30 110 48 253 35 284 -35
86 -51 106 -105 133 -30 15 -67 28 -83 28 -15 0 -57 6 -93 12 l-66 13 7 40 c9
48 22 164 34 295 5 52 9 219 10 370 1 318 -12 281 124 349 111 55 141 80 163
136 20 53 16 156 -16 390 -6 44 -14 109 -17 145 -3 36 -9 70 -13 75 -4 6 -11
39 -14 75 -4 36 -16 79 -26 95 -20 33 -41 125 -39 165 2 28 -29 150 -42 164
-5 6 -9 20 -9 31 0 34 -58 133 -94 160 -27 20 -44 25 -92 25 -32 -1 -77 -8
-99 -16 -22 -8 -66 -25 -99 -36 -67 -24 -65 -25 -97 62 -34 95 -214 440 -284
545 -38 56 -46 70 -51 88 -4 9 -10 17 -15 17 -5 0 -9 6 -9 14 0 8 -4 16 -9 18
-5 2 -20 20 -35 41 -22 34 -24 41 -11 53 27 28 125 181 125 197 0 9 5 19 10
22 6 3 10 37 10 75 0 57 -5 78 -28 120 -34 62 -99 151 -144 201 -18 19 -56 62
-84 95 -75 86 -253 263 -369 366 -149 133 -238 188 -305 188 -54 0 -155 -64
-275 -174 -27 -25 -55 -46 -60 -46 -14 0 -199 111 -203 121 -2 5 -8 9 -13 9
-6 0 -35 16 -65 35 -30 19 -56 35 -58 35 -2 0 -33 16 -68 36 -205 117 -547
273 -610 279 -52 5 -140 34 -154 51 -14 17 -90 43 -150 50 -27 3 -60 9 -74 14
-37 12 -224 16 -505 10z m-385 -5650 c36 -6 94 -25 130 -42 83 -40 192 -148
244 -240 20 -38 39 -68 41 -68 2 0 18 29 35 64 39 78 142 185 225 231 155 87
330 86 509 -3 183 -92 314 -251 385 -471 34 -103 29 -113 -26 -59 -64 62 -122
88 -195 88 -106 0 -201 -69 -254 -185 -56 -122 -39 -232 50 -321 84 -83 184
-103 292 -58 51 21 126 101 149 156 24 57 35 61 35 11 0 -169 -68 -418 -150
-550 -11 -16 -9 -26 12 -59 14 -22 38 -73 53 -114 36 -96 41 -242 12 -302 -22
-43 -62 -63 -98 -49 -55 21 -124 128 -168 264 -13 37 -28 67 -34 67 -7 0 -34
-7 -61 -15 -91 -28 -218 -17 -321 27 -112 47 -244 164 -334 297 -23 34 -45 61
-49 61 -4 0 -27 -37 -52 -82 -95 -172 -176 -252 -325 -323 -94 -44 -150 -56
-259 -56 -172 1 -285 51 -421 186 -154 152 -191 258 -188 540 2 184 20 309 68
451 90 270 294 491 505 550 57 16 108 17 190 4z"/>
<path d="M5176 3350 c-61 -24 -120 -80 -148 -140 -15 -33 -21 -67 -22 -130 -1
-74 3 -92 27 -141 59 -120 160 -185 277 -176 103 7 180 63 229 167 33 71 36
187 6 270 -25 69 -94 141 -151 158 -61 18 -161 14 -218 -8z"/>
</g>
</svg>
